# xmcd CD database file
#
# Track frame offsets:
#	150
#	26414
#	57569
#	79227
#	112414
#	129838
#	147215
#	166378
#	185529
#	211791
#
# Disc length: 3248 seconds
#
# Revision: 0
# Processed by: cddbd v1.5.2PL0 Copyright (c) Steve Scherf et al.
# Submitted via: CDex 1.51
#
DISCID=8c0cae0a
DTITLE=Sudha - Planet Love
DYEAR=2004
DGENRE=New Age
TTITLE0=Wendeyaho
TTITLE1=La 'Ieikawai
TTITLE2=Ishq Allah
TTITLE3=Undea Hibi
TTITLE4=Lelewai
TTITLE5=Oweyahe
TTITLE6=E Ala E
TTITLE7=Island
TTITLE8=E Hia 'Ai
TTITLE9=Ya Azeem
EXTD=YEAR: 2004
EXTT0=
EXTT1=
EXTT2=
EXTT3=
EXTT4=
EXTT5=
EXTT6=
EXTT7=
EXTT8=
EXTT9=
PLAYORDER=
